<svg xmlns="http://www.w3.org/2000/svg" xmlns:xlink="http://www.w3.org/1999/xlink" width="230" zoomAndPan="magnify" viewBox="0 0 172.5 30.000001" height="40" preserveAspectRatio="xMidYMid meet" version="1.0"><defs><g/><clipPath id="13e21309fa"><path d="M 2.539062 0 L 169.476562 0 L 169.476562 29.03125 L 2.539062 29.03125 Z M 2.539062 0 " clip-rule="nonzero"/></clipPath><clipPath id="d8652eecd4"><path d="M 14.855469 13 L 18 13 L 18 18 L 14.855469 18 Z M 14.855469 13 " clip-rule="nonzero"/></clipPath><clipPath id="04d046bbeb"><path d="M 14.855469 8 L 18 8 L 18 14 L 14.855469 14 Z M 14.855469 8 " clip-rule="nonzero"/></clipPath><clipPath id="769c8ebcad"><path d="M 18.523438 4.433594 L 43.148438 4.433594 L 43.148438 24.675781 L 18.523438 24.675781 Z M 18.523438 4.433594 " clip-rule="nonzero"/></clipPath></defs><g clip-path="url(#13e21309fa)"><path fill="#ffffff" d="M 2.539062 0 L 169.476562 0 L 169.476562 29.03125 L 2.539062 29.03125 Z M 2.539062 0 " fill-opacity="1" fill-rule="nonzero"/><path fill="#ffffff" d="M 2.539062 0 L 169.476562 0 L 169.476562 29.03125 L 2.539062 29.03125 Z M 2.539062 0 " fill-opacity="1" fill-rule="nonzero"/></g><g fill="#000000" fill-opacity="1"><g transform="translate(37.019277, 21.657679)"><g><path d="M 10.609375 -8.53125 L 10.609375 -13.671875 L 13.296875 -13.671875 L 13.296875 0 L 10.609375 0 L 10.609375 -6.234375 L 4.484375 -6.234375 L 4.484375 0 L 1.78125 0 L 1.78125 -13.671875 L 4.484375 -13.671875 L 4.484375 -8.53125 Z M 10.609375 -8.53125 "/></g></g><g transform="translate(52.111966, 21.657679)"><g><path d="M 6 0.203125 C 4.988281 0.203125 4.097656 -0.00390625 3.328125 -0.421875 C 2.566406 -0.835938 1.972656 -1.445312 1.546875 -2.25 C 1.128906 -3.050781 0.921875 -4.019531 0.921875 -5.15625 C 0.921875 -6.289062 1.128906 -7.257812 1.546875 -8.0625 C 1.972656 -8.863281 2.566406 -9.472656 3.328125 -9.890625 C 4.097656 -10.304688 4.988281 -10.515625 6 -10.515625 C 7.007812 -10.515625 7.894531 -10.304688 8.65625 -9.890625 C 9.414062 -9.472656 10.007812 -8.863281 10.4375 -8.0625 C 10.863281 -7.257812 11.078125 -6.289062 11.078125 -5.15625 C 11.078125 -4.019531 10.863281 -3.050781 10.4375 -2.25 C 10.007812 -1.445312 9.414062 -0.835938 8.65625 -0.421875 C 7.894531 -0.00390625 7.007812 0.203125 6 0.203125 Z M 6 -2 C 7.601562 -2 8.40625 -3.050781 8.40625 -5.15625 C 8.40625 -6.25 8.195312 -7.046875 7.78125 -7.546875 C 7.375 -8.054688 6.78125 -8.3125 6 -8.3125 C 4.394531 -8.3125 3.59375 -7.257812 3.59375 -5.15625 C 3.59375 -3.050781 4.394531 -2 6 -2 Z M 6 -2 "/></g></g><g transform="translate(64.107519, 21.657679)"><g><path d="M 4.71875 0.203125 C 3.5625 0.203125 2.707031 -0.113281 2.15625 -0.75 C 1.601562 -1.382812 1.328125 -2.296875 1.328125 -3.484375 L 1.328125 -10.3125 L 3.921875 -10.3125 L 3.921875 -3.8125 C 3.921875 -3.175781 4.054688 -2.710938 4.328125 -2.421875 C 4.597656 -2.140625 5.015625 -2 5.578125 -2 C 6.296875 -2 6.851562 -2.234375 7.25 -2.703125 C 7.65625 -3.171875 7.859375 -3.910156 7.859375 -4.921875 L 7.859375 -10.3125 L 10.453125 -10.3125 L 10.453125 0 L 7.953125 0 L 7.953125 -1.515625 L 7.765625 -1.5625 C 7.429688 -0.96875 7.023438 -0.523438 6.546875 -0.234375 C 6.078125 0.0546875 5.46875 0.203125 4.71875 0.203125 Z M 4.71875 0.203125 "/></g></g><g transform="translate(76.046932, 21.657679)"><g><path d="M 4.828125 0.203125 C 4.117188 0.203125 3.472656 0.117188 2.890625 -0.046875 C 2.304688 -0.210938 1.804688 -0.441406 1.390625 -0.734375 C 0.972656 -1.023438 0.664062 -1.359375 0.46875 -1.734375 L 1.90625 -3.28125 L 2.109375 -3.28125 C 2.453125 -2.820312 2.851562 -2.476562 3.3125 -2.25 C 3.78125 -2.019531 4.289062 -1.90625 4.84375 -1.90625 C 5.351562 -1.90625 5.734375 -1.992188 5.984375 -2.171875 C 6.242188 -2.347656 6.375 -2.609375 6.375 -2.953125 C 6.375 -3.210938 6.28125 -3.429688 6.09375 -3.609375 C 5.90625 -3.785156 5.609375 -3.921875 5.203125 -4.015625 L 3.828125 -4.34375 C 2.804688 -4.59375 2.0625 -4.96875 1.59375 -5.46875 C 1.125 -5.96875 0.890625 -6.601562 0.890625 -7.375 C 0.890625 -8.019531 1.050781 -8.578125 1.375 -9.046875 C 1.707031 -9.523438 2.171875 -9.890625 2.765625 -10.140625 C 3.359375 -10.390625 4.050781 -10.515625 4.84375 -10.515625 C 5.769531 -10.515625 6.539062 -10.378906 7.15625 -10.109375 C 7.769531 -9.835938 8.25 -9.476562 8.59375 -9.03125 L 7.203125 -7.53125 L 7.015625 -7.53125 C 6.722656 -7.863281 6.398438 -8.101562 6.046875 -8.25 C 5.691406 -8.394531 5.289062 -8.46875 4.84375 -8.46875 C 3.820312 -8.46875 3.3125 -8.148438 3.3125 -7.515625 C 3.3125 -7.253906 3.40625 -7.035156 3.59375 -6.859375 C 3.78125 -6.691406 4.117188 -6.554688 4.609375 -6.453125 L 5.875 -6.171875 C 6.925781 -5.953125 7.691406 -5.59375 8.171875 -5.09375 C 8.648438 -4.59375 8.890625 -3.925781 8.890625 -3.09375 C 8.890625 -2.4375 8.726562 -1.859375 8.40625 -1.359375 C 8.082031 -0.867188 7.613281 -0.484375 7 -0.203125 C 6.394531 0.0664062 5.671875 0.203125 4.828125 0.203125 Z M 4.828125 0.203125 "/></g></g><g transform="translate(85.562905, 21.657679)"><g><path d="M 10.203125 -4.578125 L 3.5625 -4.578125 C 3.632812 -3.679688 3.890625 -3.023438 4.328125 -2.609375 C 4.765625 -2.203125 5.363281 -2 6.125 -2 C 6.707031 -2 7.179688 -2.109375 7.546875 -2.328125 C 7.921875 -2.554688 8.222656 -2.894531 8.453125 -3.34375 L 8.640625 -3.34375 L 10.359375 -2.234375 C 10.023438 -1.515625 9.515625 -0.925781 8.828125 -0.46875 C 8.148438 -0.0195312 7.25 0.203125 6.125 0.203125 C 5.050781 0.203125 4.125 0 3.34375 -0.40625 C 2.570312 -0.8125 1.972656 -1.414062 1.546875 -2.21875 C 1.128906 -3.019531 0.921875 -4 0.921875 -5.15625 C 0.921875 -6.320312 1.140625 -7.304688 1.578125 -8.109375 C 2.023438 -8.921875 2.625 -9.523438 3.375 -9.921875 C 4.132812 -10.316406 4.988281 -10.515625 5.9375 -10.515625 C 7.394531 -10.515625 8.507812 -10.125 9.28125 -9.34375 C 10.0625 -8.570312 10.453125 -7.441406 10.453125 -5.953125 C 10.453125 -5.410156 10.429688 -4.988281 10.390625 -4.6875 Z M 7.96875 -6.25 C 7.945312 -7.03125 7.765625 -7.597656 7.421875 -7.953125 C 7.078125 -8.316406 6.582031 -8.5 5.9375 -8.5 C 4.625 -8.5 3.851562 -7.75 3.625 -6.25 Z M 7.96875 -6.25 "/></g></g><g transform="translate(96.781835, 21.657679)"><g><path d="M 10.609375 -8.53125 L 10.609375 -13.671875 L 13.296875 -13.671875 L 13.296875 0 L 10.609375 0 L 10.609375 -6.234375 L 4.484375 -6.234375 L 4.484375 0 L 1.78125 0 L 1.78125 -13.671875 L 4.484375 -13.671875 L 4.484375 -8.53125 Z M 10.609375 -8.53125 "/></g></g><g transform="translate(111.874525, 21.657679)"><g><path d="M 4.015625 0.203125 C 3.359375 0.203125 2.785156 0.0820312 2.296875 -0.15625 C 1.816406 -0.40625 1.441406 -0.765625 1.171875 -1.234375 C 0.910156 -1.710938 0.78125 -2.28125 0.78125 -2.9375 C 0.78125 -3.550781 0.910156 -4.0625 1.171875 -4.46875 C 1.441406 -4.882812 1.847656 -5.222656 2.390625 -5.484375 C 2.941406 -5.753906 3.660156 -5.960938 4.546875 -6.109375 C 5.160156 -6.203125 5.628906 -6.304688 5.953125 -6.421875 C 6.273438 -6.546875 6.488281 -6.679688 6.59375 -6.828125 C 6.707031 -6.984375 6.765625 -7.175781 6.765625 -7.40625 C 6.765625 -7.738281 6.648438 -7.988281 6.421875 -8.15625 C 6.191406 -8.332031 5.8125 -8.421875 5.28125 -8.421875 C 4.707031 -8.421875 4.160156 -8.289062 3.640625 -8.03125 C 3.117188 -7.78125 2.671875 -7.445312 2.296875 -7.03125 L 2.109375 -7.03125 L 1.015625 -8.671875 C 1.546875 -9.253906 2.1875 -9.707031 2.9375 -10.03125 C 3.6875 -10.351562 4.507812 -10.515625 5.40625 -10.515625 C 6.769531 -10.515625 7.753906 -10.222656 8.359375 -9.640625 C 8.972656 -9.066406 9.28125 -8.242188 9.28125 -7.171875 L 9.28125 -2.6875 C 9.28125 -2.226562 9.484375 -2 9.890625 -2 C 10.046875 -2 10.203125 -2.023438 10.359375 -2.078125 L 10.484375 -2.046875 L 10.671875 -0.25 C 10.523438 -0.15625 10.320312 -0.078125 10.0625 -0.015625 C 9.8125 0.046875 9.535156 0.078125 9.234375 0.078125 C 8.617188 0.078125 8.132812 -0.0390625 7.78125 -0.28125 C 7.4375 -0.519531 7.191406 -0.890625 7.046875 -1.390625 L 6.84375 -1.40625 C 6.34375 -0.332031 5.398438 0.203125 4.015625 0.203125 Z M 4.84375 -1.734375 C 5.445312 -1.734375 5.925781 -1.9375 6.28125 -2.34375 C 6.632812 -2.75 6.8125 -3.304688 6.8125 -4.015625 L 6.8125 -5.0625 L 6.640625 -5.109375 C 6.484375 -4.984375 6.28125 -4.878906 6.03125 -4.796875 C 5.78125 -4.710938 5.414062 -4.628906 4.9375 -4.546875 C 4.375 -4.453125 3.96875 -4.289062 3.71875 -4.0625 C 3.476562 -3.832031 3.359375 -3.507812 3.359375 -3.09375 C 3.359375 -2.65625 3.488281 -2.316406 3.75 -2.078125 C 4.007812 -1.847656 4.375 -1.734375 4.84375 -1.734375 Z M 4.84375 -1.734375 "/></g></g><g transform="translate(122.756606, 21.657679)"><g><path d="M 7.09375 0 L 4.015625 0 L 0.203125 -10.3125 L 2.90625 -10.3125 L 5.46875 -2.96875 L 5.6875 -2.96875 L 8.265625 -10.3125 L 10.90625 -10.3125 Z M 7.09375 0 "/></g></g><g transform="translate(133.853897, 21.657679)"><g><path d="M 10.203125 -4.578125 L 3.5625 -4.578125 C 3.632812 -3.679688 3.890625 -3.023438 4.328125 -2.609375 C 4.765625 -2.203125 5.363281 -2 6.125 -2 C 6.707031 -2 7.179688 -2.109375 7.546875 -2.328125 C 7.921875 -2.554688 8.222656 -2.894531 8.453125 -3.34375 L 8.640625 -3.34375 L 10.359375 -2.234375 C 10.023438 -1.515625 9.515625 -0.925781 8.828125 -0.46875 C 8.148438 -0.0195312 7.25 0.203125 6.125 0.203125 C 5.050781 0.203125 4.125 0 3.34375 -0.40625 C 2.570312 -0.8125 1.972656 -1.414062 1.546875 -2.21875 C 1.128906 -3.019531 0.921875 -4 0.921875 -5.15625 C 0.921875 -6.320312 1.140625 -7.304688 1.578125 -8.109375 C 2.023438 -8.921875 2.625 -9.523438 3.375 -9.921875 C 4.132812 -10.316406 4.988281 -10.515625 5.9375 -10.515625 C 7.394531 -10.515625 8.507812 -10.125 9.28125 -9.34375 C 10.0625 -8.570312 10.453125 -7.441406 10.453125 -5.953125 C 10.453125 -5.410156 10.429688 -4.988281 10.390625 -4.6875 Z M 7.96875 -6.25 C 7.945312 -7.03125 7.765625 -7.597656 7.421875 -7.953125 C 7.078125 -8.316406 6.582031 -8.5 5.9375 -8.5 C 4.625 -8.5 3.851562 -7.75 3.625 -6.25 Z M 7.96875 -6.25 "/></g></g><g transform="translate(145.072827, 21.657679)"><g><path d="M 1.484375 0 L 1.484375 -10.3125 L 3.96875 -10.3125 L 3.96875 -8.796875 L 4.171875 -8.75 C 4.816406 -9.925781 5.859375 -10.515625 7.296875 -10.515625 C 8.484375 -10.515625 9.351562 -10.1875 9.90625 -9.53125 C 10.46875 -8.882812 10.75 -7.941406 10.75 -6.703125 L 10.75 0 L 8.171875 0 L 8.171875 -6.390625 C 8.171875 -7.078125 8.03125 -7.570312 7.75 -7.875 C 7.476562 -8.175781 7.039062 -8.328125 6.4375 -8.328125 C 5.695312 -8.328125 5.117188 -8.085938 4.703125 -7.609375 C 4.285156 -7.128906 4.078125 -6.375 4.078125 -5.34375 L 4.078125 0 Z M 1.484375 0 "/></g></g></g><g clip-path="url(#d8652eecd4)"><path fill="#f69f0e" d="M 17.886719 13.023438 L 14.867188 16.042969 L 16.382812 17.5625 L 17.886719 16.058594 L 17.886719 13.023438 " fill-opacity="1" fill-rule="nonzero"/></g><g clip-path="url(#04d046bbeb)"><path fill="#1d324d" d="M 17.886719 8.5625 L 14.867188 11.582031 L 16.382812 13.101562 L 17.886719 11.597656 L 17.886719 8.5625 " fill-opacity="1" fill-rule="nonzero"/></g><path fill="#f69f0e" d="M 28.515625 13.453125 L 26.796875 13.453125 L 26.796875 11.734375 L 28.515625 11.734375 L 28.515625 13.453125 " fill-opacity="1" fill-rule="nonzero"/><path fill="#f69f0e" d="M 26.089844 15.816406 L 24.375 15.816406 L 24.375 14.097656 L 26.089844 14.097656 L 26.089844 15.816406 " fill-opacity="1" fill-rule="nonzero"/><g clip-path="url(#769c8ebcad)"><path fill="#f69f0e" d="M 20.789062 22.445312 L 20.789062 13.152344 L 26.441406 7.496094 L 36.496094 17.5625 L 38.015625 16.042969 L 26.441406 4.460938 L 20.789062 10.117188 L 20.789062 4.460938 L 18.542969 4.460938 L 18.542969 24.679688 L 43.148438 24.679688 L 43.148438 22.445312 L 20.789062 22.445312 " fill-opacity="1" fill-rule="nonzero"/></g><path fill="#1d324d" d="M 21.449219 8.03125 L 26.441406 3.035156 L 36.496094 13.101562 L 38.015625 11.582031 L 26.441406 0 L 21.449219 4.996094 L 21.449219 8.03125 " fill-opacity="1" fill-rule="nonzero"/><path fill="#bdbcbc" d="M 21.449219 13.203125 L 26.453125 8.230469 L 33.441406 14.957031 L 26.476562 8.839844 L 21.449219 13.742188 L 21.449219 13.203125 " fill-opacity="1" fill-rule="nonzero"/><path fill="#b3720a" d="M 24.375 13.453125 L 26.089844 13.453125 L 26.089844 13.425781 L 24.375 11.734375 L 24.375 13.453125 " fill-opacity="1" fill-rule="nonzero"/><path fill="#f69f0e" d="M 24.375 11.734375 L 26.089844 13.425781 L 26.089844 11.734375 Z M 24.375 11.734375 " fill-opacity="1" fill-rule="nonzero"/><path fill="#b3720a" d="M 26.796875 15.816406 L 28.515625 15.816406 L 26.796875 14.121094 Z M 26.796875 15.816406 " fill-opacity="1" fill-rule="nonzero"/><path fill="#f69f0e" d="M 26.796875 14.097656 L 26.796875 14.121094 L 28.515625 15.816406 L 28.515625 14.097656 L 26.796875 14.097656 " fill-opacity="1" fill-rule="nonzero"/></svg>